<svg version="1.1" id="Layer_1" xmlns="http://www.w3.org/2000/svg" xmlns:xlink="http://www.w3.org/1999/xlink" x="0px" y="0px"
	 width="100%" viewBox="0 0 512 512" enable-background="new 0 0 512 512" xml:space="preserve">
<path fill="#000000" opacity="1.000000" stroke="none" 
	d="
M1.000000,199.000000 
	C1.000000,132.666672 1.000000,66.833336 1.000000,1.000000 
	C171.666672,1.000000 342.333344,1.000000 513.000000,1.000000 
	C513.000000,171.666672 513.000000,342.333344 513.000000,513.000000 
	C342.333344,513.000000 171.666672,513.000000 1.000000,513.000000 
	C1.000000,408.500000 1.000000,304.000000 1.000000,199.000000 
M64.969429,387.025940 
	C64.969429,387.025940 64.975761,387.057373 65.035202,387.768890 
	C83.188591,414.809296 106.423317,436.574707 134.134628,454.677032 
	C135.442932,455.317474 136.749878,455.960693 138.059769,456.597839 
	C150.536285,462.666656 162.756760,469.363342 175.575760,474.592804 
	C184.924469,478.406555 195.062347,480.285767 205.329636,483.688110 
	C206.651398,483.805481 207.978745,483.879059 209.294052,484.046997 
	C222.100296,485.682343 234.864471,488.049683 247.721161,488.768738 
	C259.421631,489.423096 271.268921,488.819031 282.962891,487.775909 
	C291.793610,486.988190 300.484528,484.632751 310.041443,483.017395 
	C335.141541,477.414795 358.626740,467.908875 380.836182,453.613708 
	C410.779327,434.698334 435.148438,410.226746 454.614532,379.874908 
	C455.269958,378.571014 455.939667,377.274048 456.578583,375.962128 
	C462.658142,363.478058 469.363007,351.248749 474.597778,338.419678 
	C478.405518,329.087952 480.269073,318.962891 483.659424,308.706696 
	C485.436920,294.082581 487.879517,279.499237 488.779266,264.821320 
	C489.485992,253.292572 488.805206,241.600021 487.761810,230.068832 
	C486.993256,221.574631 484.644318,213.223450 483.018005,203.998611 
	C477.625153,178.819916 467.889130,155.436676 453.651611,133.194641 
	C446.952759,124.177925 440.818024,114.663048 433.409180,106.273323 
	C424.577057,96.271828 414.938171,86.923065 405.088257,77.903702 
	C399.671936,72.944107 393.103912,69.242294 387.021667,64.971977 
	C387.021667,64.971977 387.019348,64.941055 386.912506,64.486687 
	C386.748169,64.172935 386.489929,64.034599 385.835419,63.453449 
	C384.010010,62.341537 382.184570,61.229626 379.944427,59.496998 
	C367.468353,53.290508 355.284607,46.371059 342.425629,41.098442 
	C331.739410,36.716740 320.259064,34.271820 308.657867,30.304588 
	C307.336517,30.194078 306.009735,30.127590 304.694611,29.966255 
	C291.413452,28.336958 278.172546,26.060905 264.842316,25.251268 
	C254.165863,24.602814 243.333542,25.219704 232.659622,26.223614 
	C223.350479,27.099165 214.165955,29.299561 204.104767,30.981304 
	C178.861374,36.377033 155.464355,46.238647 133.162109,60.428967 
	C103.326309,79.367249 78.896278,103.698372 59.489819,134.071152 
	C53.284763,146.543655 46.366684,158.723801 41.095596,171.579254 
	C36.715481,182.261749 34.272423,193.738495 30.316195,205.332870 
	C26.985876,221.440948 24.557241,237.650681 25.041805,254.166092 
	C25.337986,264.260864 25.228683,274.404999 26.255386,284.429260 
	C27.106993,292.743988 29.353466,300.915833 30.987326,309.966003 
	C33.343151,318.341034 35.356533,326.831268 38.127747,335.066528 
	C43.512272,351.067719 50.769096,366.220459 60.457542,380.863007 
	C61.665947,382.623596 62.874355,384.384186 64.152885,386.599152 
	C64.341461,386.877899 64.604118,387.017487 64.969429,387.025940 
z"/>
<path fill="#FC665A" opacity="1.000000" stroke="none" 
	d="
M60.109138,380.330994 
	C50.769096,366.220459 43.512272,351.067719 38.127747,335.066528 
	C35.356533,326.831268 33.343151,318.341034 31.374681,309.517517 
	C38.289936,307.091125 44.873123,305.276764 51.331757,303.093872 
	C59.431808,300.356171 63.936234,294.246796 63.981750,285.843811 
	C64.086449,266.514832 64.117508,247.184006 63.960007,227.855713 
	C63.895256,219.910034 59.908165,214.056091 52.457375,211.332733 
	C45.444111,208.769302 38.144775,206.988525 30.971304,204.863403 
	C34.272423,193.738495 36.715481,182.261749 41.095596,171.579254 
	C46.366684,158.723801 53.284763,146.543655 60.058189,134.106735 
	C66.593468,137.413849 72.499550,140.803024 78.542488,143.927521 
	C86.298882,147.937943 93.852219,147.044388 100.130424,140.901749 
	C113.922523,127.407509 127.564766,113.756920 141.095322,100.000145 
	C146.483749,94.521622 147.975876,87.626572 144.840714,80.644684 
	C141.657211,73.555138 137.464828,66.918625 133.714264,60.083710 
	C155.464355,46.238647 178.861374,36.377033 204.547409,31.341408 
	C206.954605,38.232224 208.765335,44.814251 210.922775,51.280609 
	C213.604233,59.317577 219.828033,63.921688 228.161148,63.964939 
	C247.485901,64.065239 266.812653,64.116531 286.136261,63.937805 
	C294.286530,63.862419 300.156067,59.680790 302.873901,51.997467 
	C305.309631,45.111847 307.071381,37.987812 309.130493,30.968960 
	C320.259064,34.271820 331.739410,36.716740 342.425629,41.098442 
	C355.284607,46.371059 367.468353,53.290508 379.919861,60.078018 
	C376.850159,66.175629 373.724670,71.649719 370.777679,77.218277 
	C365.749603,86.719109 366.826050,93.888748 374.465027,101.572670 
	C387.237671,114.420418 400.043945,127.235268 412.926331,139.972687 
	C414.654236,141.681122 416.907227,142.858536 419.093628,144.502716 
	C419.893188,145.119385 420.516144,145.515213 420.898163,146.203796 
	C420.515900,147.296051 420.115875,148.150085 420.271210,148.887009 
	C423.967896,166.420914 424.386078,184.178406 424.004120,201.995911 
	C423.609924,220.384308 420.614685,238.365601 415.466858,255.995193 
	C415.042755,257.447693 413.879272,258.684265 412.957733,259.618774 
	C412.564545,252.511688 410.204895,249.427780 405.438843,249.522446 
	C400.896240,249.612686 398.466583,253.201859 398.043915,259.506714 
	C397.522980,267.277191 396.889740,275.059692 395.799255,282.765411 
	C395.094330,287.746735 396.201935,291.258148 400.954102,293.532867 
	C399.257721,298.158081 397.638397,302.441498 395.611755,306.744171 
	C392.820343,307.889526 389.326324,308.372955 388.239349,310.250153 
	C382.806671,319.632629 378.005432,329.380676 372.695618,339.172363 
	C367.933777,344.591888 363.458496,349.839203 358.786011,355.350494 
	C350.809509,361.947235 343.003815,368.248230 335.280640,374.648773 
	C334.182373,375.558929 333.484924,376.952698 332.255127,378.235962 
	C326.978149,381.362122 322.047974,384.375031 316.749573,387.316772 
	C314.118774,387.504913 311.771149,387.464294 309.608887,388.077393 
	C301.798431,390.292053 294.095856,392.893646 286.265350,395.029358 
	C278.974243,397.017944 277.098297,401.321960 280.620483,407.993774 
	C276.742920,409.077271 273.237274,410.064514 269.793030,411.232880 
	C252.103394,417.233612 234.103043,422.125000 215.384644,422.936829 
	C200.158417,423.597229 184.871201,423.393097 169.629761,422.941040 
	C161.545288,422.701263 153.500687,421.117859 145.292450,419.993103 
	C144.901611,419.524963 144.656372,419.204712 144.287109,418.551086 
	C143.744507,417.502136 143.455048,416.657745 142.888504,416.089752 
	C127.978531,401.141632 113.207245,386.048401 98.004997,371.402710 
	C93.394676,366.961182 86.934929,366.353668 81.120735,369.022522 
	C73.906647,372.334015 67.094757,376.521759 60.109138,380.330994 
M355.962769,195.567886 
	C329.361877,155.669510 291.964661,136.743301 244.362381,141.411743 
	C178.701614,147.851242 132.990250,207.702164 141.843552,273.568878 
	C150.840515,340.504547 217.512421,386.134125 283.377930,370.433533 
	C360.988159,351.933319 397.256012,265.316254 355.962769,195.567886 
M387.945374,195.793503 
	C387.798035,198.187439 387.019043,200.753036 387.614777,202.945023 
	C389.961670,211.580139 392.734833,220.099609 395.361633,228.658371 
	C396.767090,233.237732 400.335785,235.502014 404.347015,234.387436 
	C408.465851,233.242966 410.623047,229.720032 409.317200,225.022171 
	C406.831696,216.080276 404.223969,207.152100 401.144897,198.401932 
	C398.777222,191.673401 394.094269,190.712372 387.945374,195.793503 
M221.830887,120.206665 
	C224.100525,119.708519 226.398575,119.312592 228.633850,118.690865 
	C233.234940,117.411102 235.662643,113.783302 234.680725,109.859009 
	C233.657715,105.770630 229.951553,103.380028 225.428513,104.634476 
	C216.331696,107.157463 207.279022,109.881477 198.336761,112.903229 
	C193.368866,114.581947 191.612244,118.483803 193.155075,122.614044 
	C194.625427,126.550232 198.661148,127.935379 203.587357,126.267525 
	C209.399185,124.299820 215.230240,122.388947 221.830887,120.206665 
M331.439850,137.050034 
	C332.144531,137.489365 332.842316,137.940247 333.555023,138.366150 
	C338.622681,141.394440 342.968781,140.846039 345.255463,136.895447 
	C347.472321,133.065521 346.214050,128.965759 341.260254,126.160156 
	C333.471649,121.749084 325.549194,117.548935 317.507568,113.619339 
	C312.580841,111.211868 308.440735,112.806328 306.716309,117.055664 
	C305.090302,121.062592 306.926849,124.472336 311.782745,126.901161 
	C318.159790,130.090820 324.471130,133.411880 331.439850,137.050034 
M116.148743,246.811722 
	C116.912376,241.048431 117.773094,235.295822 118.407921,229.518387 
	C118.887466,225.154144 116.330658,221.638931 112.344994,221.202301 
	C108.062592,220.733154 104.879265,222.891846 104.326035,226.982025 
	C102.992134,236.843933 102.016014,246.770615 101.371033,256.702026 
	C101.075058,261.259399 104.205818,264.124359 108.264282,264.247528 
	C112.309227,264.370331 115.366547,261.664612 115.803268,257.209686 
	C116.110680,254.073761 116.013588,250.898209 116.148743,246.811722 
M175.740036,389.792542 
	C182.826538,393.420624 189.820465,397.247955 197.035248,400.599945 
	C201.172150,402.521912 205.260147,400.942444 206.814758,397.355316 
	C208.407181,393.681030 207.674667,390.190399 204.177826,388.222687 
	C195.366821,383.264618 186.417145,378.541443 177.398193,373.970398 
	C173.956284,372.225952 170.785049,373.543457 168.739883,376.671906 
	C166.672577,379.834167 167.073044,383.104034 169.824799,385.712708 
	C171.368561,387.176117 173.354401,388.173248 175.740036,389.792542 
M126.741081,338.133820 
	C127.281517,340.312683 127.213142,342.959778 128.466980,344.589935 
	C134.122757,351.943329 140.009750,359.133514 146.105362,366.128082 
	C149.444107,369.959198 154.035263,370.196747 157.082397,367.364288 
	C160.154953,364.508240 159.929626,360.093231 156.709656,356.264709 
	C151.162796,349.669525 145.643799,343.048462 140.240387,336.335785 
	C135.795135,330.813416 130.620468,331.170990 126.741081,338.133820 
M129.016006,169.125153 
	C123.816055,178.334946 118.398689,187.431335 113.510117,196.803543 
	C111.152946,201.322632 112.994377,205.462662 117.113922,207.138367 
	C121.035416,208.733536 124.402443,207.061356 126.754707,202.556412 
	C130.742050,194.920059 134.737564,187.285339 138.905502,179.747147 
	C140.662338,176.569672 141.435364,173.510513 139.043152,170.490479 
	C136.520340,167.305557 133.244308,166.969238 129.016006,169.125153 
M253.423264,412.679047 
	C260.805145,412.762573 264.213928,410.455963 264.186340,405.395966 
	C264.159882,400.543121 260.812714,398.420929 253.836166,397.982269 
	C246.043442,397.492279 238.275955,396.559540 230.509262,395.711578 
	C225.299606,395.142792 221.792984,397.211182 221.090347,401.496307 
	C220.402023,405.694214 223.166351,409.258331 228.236969,409.938171 
	C236.309570,411.020477 244.429306,411.751312 253.423264,412.679047 
M109.035553,305.459930 
	C110.419487,309.194550 111.623718,313.008850 113.235413,316.642456 
	C115.021820,320.669922 119.082680,322.349365 122.706963,320.642487 
	C126.571617,318.822327 127.875732,315.579254 126.673187,311.526093 
	C124.033157,302.627869 121.290039,293.760010 118.552940,284.890900 
	C117.234970,280.620270 113.734314,278.322998 109.953033,279.151215 
	C105.874443,280.044525 103.491837,283.799805 104.532227,288.328918 
	C105.794113,293.822235 107.384682,299.240082 109.035553,305.459930 
M366.996826,168.513107 
	C369.284607,171.569992 371.523102,174.665375 373.872711,177.673996 
	C376.796661,181.418076 380.976868,182.279175 384.313141,179.935699 
	C387.640717,177.598312 388.516663,173.082397 385.616119,169.359543 
	C379.707733,161.776169 373.573334,154.351852 367.205566,147.150665 
	C364.006439,143.532822 359.612671,143.613678 356.611420,146.552643 
	C353.576630,149.524475 353.639160,153.502243 356.896912,157.220505 
	C360.068787,160.840805 363.331573,164.381485 366.996826,168.513107 
M259.791077,115.940697 
	C267.868500,116.737968 275.944244,117.552330 284.023956,118.325783 
	C288.540253,118.758118 291.784332,116.578171 292.615448,112.634583 
	C293.416626,108.833244 291.003479,104.791451 286.729279,104.243881 
	C276.875458,102.981499 266.970551,102.027657 257.058807,101.353653 
	C253.215347,101.092293 250.376877,103.282631 249.821091,107.427040 
	C249.278473,111.473244 251.182083,114.148323 254.973145,115.406715 
	C256.201263,115.814362 257.579468,115.769821 259.791077,115.940697 
M153.377747,140.876404 
	C151.436813,142.687317 149.427383,144.430984 147.569580,146.323502 
	C144.003525,149.956192 143.710007,154.301300 146.712845,157.334000 
	C149.641708,160.291977 153.666260,160.127121 157.411011,157.000107 
	C164.151016,151.371918 170.905899,145.760941 177.702789,140.201721 
	C181.405594,137.173172 182.414398,133.160049 180.160263,129.780563 
	C177.787476,126.223259 173.336411,125.517921 169.217636,128.503189 
	C163.986176,132.294922 158.999084,136.423798 153.377747,140.876404 
z"/>
<path fill="#F05543" opacity="1.000000" stroke="none" 
	d="
M317.117828,387.387939 
	C322.047974,384.375031 326.978149,381.362122 332.204102,378.613495 
	C333.771393,381.515778 334.405060,385.226837 336.503235,386.473877 
	C338.399231,387.600769 342.556854,386.947998 344.567566,385.492218 
	C351.790955,380.262207 358.539825,374.374786 365.442169,368.704346 
	C368.506012,366.187317 370.259277,363.035217 368.605957,359.099182 
	C366.796326,354.791046 363.051208,354.372833 358.983215,355.086548 
	C363.458496,349.839203 367.933777,344.591888 372.786835,339.526794 
	C373.780426,343.308960 375.623932,345.885071 379.382721,346.504761 
	C383.166718,347.128601 385.729462,345.145416 387.433624,342.002472 
	C391.757416,334.028107 396.210938,326.112823 400.196350,317.970184 
	C402.820404,312.608887 401.476349,309.743225 396.019043,306.724915 
	C397.638397,302.441498 399.257721,298.158081 401.350220,293.493591 
	C406.912720,293.229706 409.440033,290.458435 410.028870,285.673004 
	C411.080383,277.127472 412.053467,268.572327 413.059357,260.021179 
	C413.879272,258.684265 415.042755,257.447693 415.466858,255.995193 
	C420.614685,238.365601 423.609924,220.384308 424.004120,201.995911 
	C424.386078,184.178406 423.967896,166.420914 420.271210,148.887009 
	C420.115875,148.150085 420.515900,147.296051 421.287781,146.222107 
	C425.514221,145.771881 429.549957,146.586304 432.618286,145.223175 
	C439.983154,141.951233 446.893921,137.657028 453.987915,133.775314 
	C467.889130,155.436676 477.625153,178.819916 482.615051,204.446716 
	C475.695465,206.831116 469.122620,208.598663 462.676270,210.745865 
	C454.389191,213.506180 450.013214,219.772736 450.004059,228.409195 
	C449.983704,247.564407 449.980225,266.719696 450.006348,285.874878 
	C450.017090,293.756104 454.174683,300.269745 461.544189,302.847382 
	C468.575439,305.306671 475.838379,307.103516 482.999481,309.191559 
	C480.269073,318.962891 478.405518,329.087952 474.597778,338.419678 
	C469.363007,351.248749 462.658142,363.478058 456.578583,375.962128 
	C455.939667,377.274048 455.269958,378.571014 454.074829,379.782593 
	C447.271637,376.268951 441.138092,372.576263 434.710632,369.497223 
	C427.236328,365.916748 419.951416,366.890991 413.985413,372.738708 
	C400.069672,386.378418 386.322296,400.192047 372.641022,414.067657 
	C367.505524,419.276031 365.964844,425.970581 368.743988,432.526245 
	C371.896912,439.963715 376.373138,446.840240 380.274048,453.960632 
	C358.626740,467.908875 335.141541,477.414795 309.589142,482.600891 
	C307.208099,475.662659 305.469635,469.076904 303.303223,462.635101 
	C300.492157,454.276337 294.318420,450.011444 285.608948,450.003510 
	C266.442810,449.985992 247.276627,450.016327 228.110519,449.989471 
	C220.026550,449.978149 214.191483,453.847778 211.365814,461.111298 
	C208.611862,468.190430 206.975479,475.704346 204.848434,483.027374 
	C195.062347,480.285767 184.924469,478.406555 175.575760,474.592804 
	C162.756760,469.363342 150.536285,462.666656 138.059769,456.597839 
	C136.749878,455.960693 135.442932,455.317474 134.236755,454.117920 
	C137.254990,448.233826 140.041595,442.832489 143.122604,437.604645 
	C146.393814,432.054108 147.415863,426.327423 145.438080,420.140991 
	C153.500687,421.117859 161.545288,422.701263 169.629761,422.941040 
	C184.871201,423.393097 200.158417,423.597229 215.384644,422.936829 
	C234.103043,422.125000 252.103394,417.233612 269.793030,411.232880 
	C273.237274,410.064514 276.742920,409.077271 280.957336,408.145813 
	C284.056366,408.648743 286.618195,409.787964 288.745331,409.239990 
	C297.414398,407.006653 306.052216,404.549774 314.505829,401.612152 
	C322.433960,398.857178 323.300354,393.142365 317.117828,387.387939 
z"/>
<path fill="#D3D1F5" opacity="1.000000" stroke="none" 
	d="
M380.555115,453.787170 
	C376.373138,446.840240 371.896912,439.963715 368.743988,432.526245 
	C365.964844,425.970581 367.505524,419.276031 372.641022,414.067657 
	C386.322296,400.192047 400.069672,386.378418 413.985413,372.738708 
	C419.951416,366.890991 427.236328,365.916748 434.710632,369.497223 
	C441.138092,372.576263 447.271637,376.268951 453.757507,379.962738 
	C435.148438,410.226746 410.779327,434.698334 380.555115,453.787170 
z"/>
<path fill="#E4E1FC" opacity="1.000000" stroke="none" 
	d="
M133.438187,60.256336 
	C137.464828,66.918625 141.657211,73.555138 144.840714,80.644684 
	C147.975876,87.626572 146.483749,94.521622 141.095322,100.000145 
	C127.564766,113.756920 113.922523,127.407509 100.130424,140.901749 
	C93.852219,147.044388 86.298882,147.937943 78.542488,143.927521 
	C72.499550,140.803024 66.593468,137.413849 60.367363,133.900116 
	C78.896278,103.698372 103.326309,79.367249 133.438187,60.256336 
z"/>
<path fill="#D3D1F5" opacity="1.000000" stroke="none" 
	d="
M483.329468,308.949127 
	C475.838379,307.103516 468.575439,305.306671 461.544189,302.847382 
	C454.174683,300.269745 450.017090,293.756104 450.006348,285.874878 
	C449.980225,266.719696 449.983704,247.564407 450.004059,228.409195 
	C450.013214,219.772736 454.389191,213.506180 462.676270,210.745865 
	C469.122620,208.598663 475.695465,206.831116 482.605835,204.851685 
	C484.644318,213.223450 486.993256,221.574631 487.761810,230.068832 
	C488.805206,241.600021 489.485992,253.292572 488.779266,264.821320 
	C487.879517,279.499237 485.436920,294.082581 483.329468,308.949127 
z"/>
<path fill="#D2D1F6" opacity="1.000000" stroke="none" 
	d="
M205.089035,483.357727 
	C206.975479,475.704346 208.611862,468.190430 211.365814,461.111298 
	C214.191483,453.847778 220.026550,449.978149 228.110519,449.989471 
	C247.276627,450.016327 266.442810,449.985992 285.608948,450.003510 
	C294.318420,450.011444 300.492157,454.276337 303.303223,462.635101 
	C305.469635,469.076904 307.208099,475.662659 309.187256,482.579712 
	C300.484528,484.632751 291.793610,486.988190 282.962891,487.775909 
	C271.268921,488.819031 259.421631,489.423096 247.721161,488.768738 
	C234.864471,488.049683 222.100296,485.682343 209.294052,484.046997 
	C207.978745,483.879059 206.651398,483.805481 205.089035,483.357727 
z"/>
<path fill="#E4E1FD" opacity="1.000000" stroke="none" 
	d="
M30.643749,205.098145 
	C38.144775,206.988525 45.444111,208.769302 52.457375,211.332733 
	C59.908165,214.056091 63.895256,219.910034 63.960007,227.855713 
	C64.117508,247.184006 64.086449,266.514832 63.981750,285.843811 
	C63.936234,294.246796 59.431808,300.356171 51.331757,303.093872 
	C44.873123,305.276764 38.289936,307.091125 31.372017,309.110016 
	C29.353466,300.915833 27.106993,292.743988 26.255386,284.429260 
	C25.228683,274.404999 25.337986,264.260864 25.041805,254.166092 
	C24.557241,237.650681 26.985876,221.440948 30.643749,205.098145 
z"/>
<path fill="#E4E2FD" opacity="1.000000" stroke="none" 
	d="
M308.894165,30.636774 
	C307.071381,37.987812 305.309631,45.111847 302.873901,51.997467 
	C300.156067,59.680790 294.286530,63.862419 286.136261,63.937805 
	C266.812653,64.116531 247.485901,64.065239 228.161148,63.964939 
	C219.828033,63.921688 213.604233,59.317577 210.922775,51.280609 
	C208.765335,44.814251 206.954605,38.232224 204.958206,31.308050 
	C214.165955,29.299561 223.350479,27.099165 232.659622,26.223614 
	C243.333542,25.219704 254.165863,24.602814 264.842316,25.251268 
	C278.172546,26.060905 291.413452,28.336958 304.694611,29.966255 
	C306.009735,30.127590 307.336517,30.194078 308.894165,30.636774 
z"/>
<path fill="#D3D0F3" opacity="1.000000" stroke="none" 
	d="
M145.292450,419.993103 
	C147.415863,426.327423 146.393814,432.054108 143.122604,437.604645 
	C140.041595,442.832489 137.254990,448.233826 134.077164,453.791565 
	C106.423317,436.574707 83.188591,414.809296 65.357605,387.459106 
	C66.871407,387.712311 68.076958,388.247406 69.252014,388.842682 
	C81.943947,395.272461 94.280228,402.579956 107.423485,407.891083 
	C119.294952,412.688324 132.047272,415.305786 144.411148,418.884491 
	C144.656372,419.204712 144.901611,419.524963 145.292450,419.993103 
z"/>
<path fill="#D3D0F4" opacity="1.000000" stroke="none" 
	d="
M453.819763,133.484985 
	C446.893921,137.657028 439.983154,141.951233 432.618286,145.223175 
	C429.549957,146.586304 425.514221,145.771881 421.528748,145.929321 
	C420.516144,145.515213 419.893188,145.119385 419.106903,144.074982 
	C414.888702,121.473572 406.757263,101.031570 396.038422,81.543526 
	C393.010559,76.038544 390.047760,70.497765 387.055145,64.973396 
	C393.103912,69.242294 399.671936,72.944107 405.088257,77.903702 
	C414.938171,86.923065 424.577057,96.271828 433.409180,106.273323 
	C440.818024,114.663048 446.952759,124.177925 453.819763,133.484985 
z"/>
<path fill="#E4E1FD" opacity="1.000000" stroke="none" 
	d="
M387.038391,64.972687 
	C390.047760,70.497765 393.010559,76.038544 396.038422,81.543526 
	C406.757263,101.031570 414.888702,121.473572 418.930328,143.854126 
	C416.907227,142.858536 414.654236,141.681122 412.926331,139.972687 
	C400.043945,127.235268 387.237671,114.420418 374.465027,101.572670 
	C366.826050,93.888748 365.749603,86.719109 370.777679,77.218277 
	C373.724670,71.649719 376.850159,66.175629 380.127258,60.388374 
	C382.184570,61.229626 384.010010,62.341537 386.082794,63.951294 
	C386.505951,64.688583 386.735687,64.852554 387.019348,64.941055 
	C387.019348,64.941055 387.021667,64.971977 387.038391,64.972687 
z"/>
<path fill="#E4E1FD" opacity="1.000000" stroke="none" 
	d="
M144.287109,418.551086 
	C132.047272,415.305786 119.294952,412.688324 107.423485,407.891083 
	C94.280228,402.579956 81.943947,395.272461 69.252014,388.842682 
	C68.076958,388.247406 66.871407,387.712311 65.327881,387.103333 
	C64.975761,387.057373 64.969429,387.025940 64.864243,386.830200 
	C64.586044,386.398834 64.360611,386.235596 64.082764,386.144775 
	C62.874355,384.384186 61.665947,382.623596 60.283340,380.596985 
	C67.094757,376.521759 73.906647,372.334015 81.120735,369.022522 
	C86.934929,366.353668 93.394676,366.961182 98.004997,371.402710 
	C113.207245,386.048401 127.978531,401.141632 142.888504,416.089752 
	C143.455048,416.657745 143.744507,417.502136 144.287109,418.551086 
z"/>
<path fill="#D3D0F3" opacity="1.000000" stroke="none" 
	d="
M64.117821,386.371948 
	C64.360611,386.235596 64.586044,386.398834 64.849960,386.826233 
	C64.604118,387.017487 64.341461,386.877899 64.117821,386.371948 
z"/>
<path fill="#D3D0F4" opacity="1.000000" stroke="none" 
	d="
M386.965942,64.713867 
	C386.735687,64.852554 386.505951,64.688583 386.233978,64.260414 
	C386.489929,64.034599 386.748169,64.172935 386.965942,64.713867 
z"/>
<path fill="#FFFEFE" opacity="1.000000" stroke="none" 
	d="
M356.148315,195.881805 
	C397.256012,265.316254 360.988159,351.933319 283.377930,370.433533 
	C217.512421,386.134125 150.840515,340.504547 141.843552,273.568878 
	C132.990250,207.702164 178.701614,147.851242 244.362381,141.411743 
	C291.964661,136.743301 329.361877,155.669510 356.148315,195.881805 
M331.234741,262.499054 
	C331.206757,254.679077 331.391998,246.851334 331.107208,239.040710 
	C330.480438,221.848053 316.435699,207.649750 299.606598,206.920502 
	C281.286926,206.126678 265.457214,218.408813 264.036072,236.060333 
	C262.932465,249.767532 262.988403,263.686340 263.953491,277.410919 
	C265.072052,293.318665 278.770874,305.975677 294.093231,307.029297 
	C311.330353,308.214630 326.179260,298.124512 329.967773,281.821106 
	C331.335968,275.933258 330.865936,269.618256 331.234741,262.499054 
M199.054230,226.554428 
	C196.362534,229.274185 193.509918,231.855301 191.018265,234.747406 
	C187.598328,238.716919 187.866394,244.359482 191.337463,247.878983 
	C195.019211,251.612122 200.117111,251.913071 204.414444,248.524094 
	C206.169006,247.140396 207.739609,245.523453 209.878662,243.569901 
	C209.878662,257.701965 209.878662,271.051849 209.878662,284.866119 
	C207.663452,284.866119 205.702957,284.858459 203.742569,284.868286 
	C201.746033,284.878296 199.741760,284.799438 197.754578,284.945679 
	C192.434357,285.337189 188.708755,289.188019 188.589111,294.292511 
	C188.463974,299.632904 192.221619,303.988373 197.766556,304.064056 
	C211.907837,304.257080 226.054825,304.248169 240.196609,304.078064 
	C245.689194,304.012024 249.650620,299.627716 249.601715,294.439636 
	C249.552948,289.263458 245.552979,285.208710 240.006104,284.937195 
	C236.736160,284.777130 233.451950,284.907928 229.759903,284.907928 
	C229.759903,282.489136 229.759979,280.691040 229.759903,278.892944 
	C229.759018,259.589539 229.751205,240.286118 229.762115,220.982712 
	C229.764786,216.264999 228.188583,212.410675 223.575851,210.568710 
	C219.020355,208.749603 215.202103,210.214645 211.883560,213.674545 
	C207.852783,217.876968 203.670761,221.934311 199.054230,226.554428 
z"/>
<path fill="#FFFBFB" opacity="1.000000" stroke="none" 
	d="
M412.957733,259.618774 
	C412.053467,268.572327 411.080383,277.127472 410.028870,285.673004 
	C409.440033,290.458435 406.912720,293.229706 401.427246,293.151794 
	C396.201935,291.258148 395.094330,287.746735 395.799255,282.765411 
	C396.889740,275.059692 397.522980,267.277191 398.043915,259.506714 
	C398.466583,253.201859 400.896240,249.612686 405.438843,249.522446 
	C410.204895,249.427780 412.564545,252.511688 412.957733,259.618774 
z"/>
<path fill="#FFFBFB" opacity="1.000000" stroke="none" 
	d="
M388.159821,195.468170 
	C394.094269,190.712372 398.777222,191.673401 401.144897,198.401932 
	C404.223969,207.152100 406.831696,216.080276 409.317200,225.022171 
	C410.623047,229.720032 408.465851,233.242966 404.347015,234.387436 
	C400.335785,235.502014 396.767090,233.237732 395.361633,228.658371 
	C392.734833,220.099609 389.961670,211.580139 387.614777,202.945023 
	C387.019043,200.753036 387.798035,198.187439 388.159821,195.468170 
z"/>
<path fill="#FFFCFB" opacity="1.000000" stroke="none" 
	d="
M316.749573,387.316772 
	C323.300354,393.142365 322.433960,398.857178 314.505829,401.612152 
	C306.052216,404.549774 297.414398,407.006653 288.745331,409.239990 
	C286.618195,409.787964 284.056366,408.648743 281.357544,408.133118 
	C277.098297,401.321960 278.974243,397.017944 286.265350,395.029358 
	C294.095856,392.893646 301.798431,390.292053 309.608887,388.077393 
	C311.771149,387.464294 314.118774,387.504913 316.749573,387.316772 
z"/>
<path fill="#FFFBFB" opacity="1.000000" stroke="none" 
	d="
M358.786011,355.350494 
	C363.051208,354.372833 366.796326,354.791046 368.605957,359.099182 
	C370.259277,363.035217 368.506012,366.187317 365.442169,368.704346 
	C358.539825,374.374786 351.790955,380.262207 344.567566,385.492218 
	C342.556854,386.947998 338.399231,387.600769 336.503235,386.473877 
	C334.405060,385.226837 333.771393,381.515778 332.550964,378.500244 
	C333.484924,376.952698 334.182373,375.558929 335.280640,374.648773 
	C343.003815,368.248230 350.809509,361.947235 358.786011,355.350494 
z"/>
<path fill="#FFFCFB" opacity="1.000000" stroke="none" 
	d="
M221.441925,120.330048 
	C215.230240,122.388947 209.399185,124.299820 203.587357,126.267525 
	C198.661148,127.935379 194.625427,126.550232 193.155075,122.614044 
	C191.612244,118.483803 193.368866,114.581947 198.336761,112.903229 
	C207.279022,109.881477 216.331696,107.157463 225.428513,104.634476 
	C229.951553,103.380028 233.657715,105.770630 234.680725,109.859009 
	C235.662643,113.783302 233.234940,117.411102 228.633850,118.690865 
	C226.398575,119.312592 224.100525,119.708519 221.441925,120.330048 
z"/>
<path fill="#FFFCFC" opacity="1.000000" stroke="none" 
	d="
M331.125275,136.863251 
	C324.471130,133.411880 318.159790,130.090820 311.782745,126.901161 
	C306.926849,124.472336 305.090302,121.062592 306.716309,117.055664 
	C308.440735,112.806328 312.580841,111.211868 317.507568,113.619339 
	C325.549194,117.548935 333.471649,121.749084 341.260254,126.160156 
	C346.214050,128.965759 347.472321,133.065521 345.255463,136.895447 
	C342.968781,140.846039 338.622681,141.394440 333.555023,138.366150 
	C332.842316,137.940247 332.144531,137.489365 331.125275,136.863251 
z"/>
<path fill="#FFFBFB" opacity="1.000000" stroke="none" 
	d="
M116.122925,247.276031 
	C116.013588,250.898209 116.110680,254.073761 115.803268,257.209686 
	C115.366547,261.664612 112.309227,264.370331 108.264282,264.247528 
	C104.205818,264.124359 101.075058,261.259399 101.371033,256.702026 
	C102.016014,246.770615 102.992134,236.843933 104.326035,226.982025 
	C104.879265,222.891846 108.062592,220.733154 112.344994,221.202301 
	C116.330658,221.638931 118.887466,225.154144 118.407921,229.518387 
	C117.773094,235.295822 116.912376,241.048431 116.122925,247.276031 
z"/>
<path fill="#FFFCFC" opacity="1.000000" stroke="none" 
	d="
M175.440552,389.586487 
	C173.354401,388.173248 171.368561,387.176117 169.824799,385.712708 
	C167.073044,383.104034 166.672577,379.834167 168.739883,376.671906 
	C170.785049,373.543457 173.956284,372.225952 177.398193,373.970398 
	C186.417145,378.541443 195.366821,383.264618 204.177826,388.222687 
	C207.674667,390.190399 208.407181,393.681030 206.814758,397.355316 
	C205.260147,400.942444 201.172150,402.521912 197.035248,400.599945 
	C189.820465,397.247955 182.826538,393.420624 175.440552,389.586487 
z"/>
<path fill="#FFFCFC" opacity="1.000000" stroke="none" 
	d="
M126.826447,337.779175 
	C130.620468,331.170990 135.795135,330.813416 140.240387,336.335785 
	C145.643799,343.048462 151.162796,349.669525 156.709656,356.264709 
	C159.929626,360.093231 160.154953,364.508240 157.082397,367.364288 
	C154.035263,370.196747 149.444107,369.959198 146.105362,366.128082 
	C140.009750,359.133514 134.122757,351.943329 128.466980,344.589935 
	C127.213142,342.959778 127.281517,340.312683 126.826447,337.779175 
z"/>
<path fill="#FFFCFC" opacity="1.000000" stroke="none" 
	d="
M129.345734,168.912231 
	C133.244308,166.969238 136.520340,167.305557 139.043152,170.490479 
	C141.435364,173.510513 140.662338,176.569672 138.905502,179.747147 
	C134.737564,187.285339 130.742050,194.920059 126.754707,202.556412 
	C124.402443,207.061356 121.035416,208.733536 117.113922,207.138367 
	C112.994377,205.462662 111.152946,201.322632 113.510117,196.803543 
	C118.398689,187.431335 123.816055,178.334946 129.345734,168.912231 
z"/>
<path fill="#FFFCFB" opacity="1.000000" stroke="none" 
	d="
M252.976181,412.654907 
	C244.429306,411.751312 236.309570,411.020477 228.236969,409.938171 
	C223.166351,409.258331 220.402023,405.694214 221.090347,401.496307 
	C221.792984,397.211182 225.299606,395.142792 230.509262,395.711578 
	C238.275955,396.559540 246.043442,397.492279 253.836166,397.982269 
	C260.812714,398.420929 264.159882,400.543121 264.186340,405.395966 
	C264.213928,410.455963 260.805145,412.762573 252.976181,412.654907 
z"/>
<path fill="#FFFCFB" opacity="1.000000" stroke="none" 
	d="
M395.611755,306.744171 
	C401.476349,309.743225 402.820404,312.608887 400.196350,317.970184 
	C396.210938,326.112823 391.757416,334.028107 387.433624,342.002472 
	C385.729462,345.145416 383.166718,347.128601 379.382721,346.504761 
	C375.623932,345.885071 373.780426,343.308960 373.073364,339.354614 
	C378.005432,329.380676 382.806671,319.632629 388.239349,310.250153 
	C389.326324,308.372955 392.820343,307.889526 395.611755,306.744171 
z"/>
<path fill="#FFFCFB" opacity="1.000000" stroke="none" 
	d="
M108.934296,305.075256 
	C107.384682,299.240082 105.794113,293.822235 104.532227,288.328918 
	C103.491837,283.799805 105.874443,280.044525 109.953033,279.151215 
	C113.734314,278.322998 117.234970,280.620270 118.552940,284.890900 
	C121.290039,293.760010 124.033157,302.627869 126.673187,311.526093 
	C127.875732,315.579254 126.571617,318.822327 122.706963,320.642487 
	C119.082680,322.349365 115.021820,320.669922 113.235413,316.642456 
	C111.623718,313.008850 110.419487,309.194550 108.934296,305.075256 
z"/>
<path fill="#FFFCFB" opacity="1.000000" stroke="none" 
	d="
M366.775635,168.235123 
	C363.331573,164.381485 360.068787,160.840805 356.896912,157.220505 
	C353.639160,153.502243 353.576630,149.524475 356.611420,146.552643 
	C359.612671,143.613678 364.006439,143.532822 367.205566,147.150665 
	C373.573334,154.351852 379.707733,161.776169 385.616119,169.359543 
	C388.516663,173.082397 387.640717,177.598312 384.313141,179.935699 
	C380.976868,182.279175 376.796661,181.418076 373.872711,177.673996 
	C371.523102,174.665375 369.284607,171.569992 366.775635,168.235123 
z"/>
<path fill="#FFFBFB" opacity="1.000000" stroke="none" 
	d="
M259.340027,115.936417 
	C257.579468,115.769821 256.201263,115.814362 254.973145,115.406715 
	C251.182083,114.148323 249.278473,111.473244 249.821091,107.427040 
	C250.376877,103.282631 253.215347,101.092293 257.058807,101.353653 
	C266.970551,102.027657 276.875458,102.981499 286.729279,104.243881 
	C291.003479,104.791451 293.416626,108.833244 292.615448,112.634583 
	C291.784332,116.578171 288.540253,118.758118 284.023956,118.325783 
	C275.944244,117.552330 267.868500,116.737968 259.340027,115.936417 
z"/>
<path fill="#FFFCFC" opacity="1.000000" stroke="none" 
	d="
M153.642181,140.641846 
	C158.999084,136.423798 163.986176,132.294922 169.217636,128.503189 
	C173.336411,125.517921 177.787476,126.223259 180.160263,129.780563 
	C182.414398,133.160049 181.405594,137.173172 177.702789,140.201721 
	C170.905899,145.760941 164.151016,151.371918 157.411011,157.000107 
	C153.666260,160.127121 149.641708,160.291977 146.712845,157.334000 
	C143.710007,154.301300 144.003525,149.956192 147.569580,146.323502 
	C149.427383,144.430984 151.436813,142.687317 153.642181,140.641846 
z"/>
<path fill="#494848" opacity="1.000000" stroke="none" 
	d="
M331.234741,262.998596 
	C330.865936,269.618256 331.335968,275.933258 329.967773,281.821106 
	C326.179260,298.124512 311.330353,308.214630 294.093231,307.029297 
	C278.770874,305.975677 265.072052,293.318665 263.953491,277.410919 
	C262.988403,263.686340 262.932465,249.767532 264.036072,236.060333 
	C265.457214,218.408813 281.286926,206.126678 299.606598,206.920502 
	C316.435699,207.649750 330.480438,221.848053 331.107208,239.040710 
	C331.391998,246.851334 331.206757,254.679077 331.234741,262.998596 
M311.836517,243.733185 
	C311.732666,233.100296 306.173279,226.227203 297.442108,226.329071 
	C289.425934,226.422623 282.332214,232.650528 282.877838,243.556732 
	C283.343506,252.864944 282.938629,262.215057 282.985199,271.546295 
	C283.033264,281.183685 289.096649,287.881561 297.535675,287.724304 
	C305.808380,287.570190 311.749237,280.960632 311.820068,271.675232 
	C311.888733,262.677551 311.836151,253.678940 311.836517,243.733185 
z"/>
<path fill="#4A4949" opacity="1.000000" stroke="none" 
	d="
M199.304214,226.304443 
	C203.670761,221.934311 207.852783,217.876968 211.883560,213.674545 
	C215.202103,210.214645 219.020355,208.749603 223.575851,210.568710 
	C228.188583,212.410675 229.764786,216.264999 229.762115,220.982712 
	C229.751205,240.286118 229.759018,259.589539 229.759903,278.892944 
	C229.759979,280.691040 229.759903,282.489136 229.759903,284.907928 
	C233.451950,284.907928 236.736160,284.777130 240.006104,284.937195 
	C245.552979,285.208710 249.552948,289.263458 249.601715,294.439636 
	C249.650620,299.627716 245.689194,304.012024 240.196609,304.078064 
	C226.054825,304.248169 211.907837,304.257080 197.766556,304.064056 
	C192.221619,303.988373 188.463974,299.632904 188.589111,294.292511 
	C188.708755,289.188019 192.434357,285.337189 197.754578,284.945679 
	C199.741760,284.799438 201.746033,284.878296 203.742569,284.868286 
	C205.702957,284.858459 207.663452,284.866119 209.878662,284.866119 
	C209.878662,271.051849 209.878662,257.701965 209.878662,243.569901 
	C207.739609,245.523453 206.169006,247.140396 204.414444,248.524094 
	C200.117111,251.913071 195.019211,251.612122 191.337463,247.878983 
	C187.866394,244.359482 187.598328,238.716919 191.018265,234.747406 
	C193.509918,231.855301 196.362534,229.274185 199.304214,226.304443 
z"/>
<path fill="#FDFDFD" opacity="1.000000" stroke="none" 
	d="
M311.836670,244.206970 
	C311.836151,253.678940 311.888733,262.677551 311.820068,271.675232 
	C311.749237,280.960632 305.808380,287.570190 297.535675,287.724304 
	C289.096649,287.881561 283.033264,281.183685 282.985199,271.546295 
	C282.938629,262.215057 283.343506,252.864944 282.877838,243.556732 
	C282.332214,232.650528 289.425934,226.422623 297.442108,226.329071 
	C306.173279,226.227203 311.732666,233.100296 311.836670,244.206970 
z"/>
</svg>