<?xml version="1.0" standalone="no"?>
<!DOCTYPE svg PUBLIC "-//W3C//DTD SVG 20010904//EN"
 "http://www.w3.org/TR/2001/REC-SVG-20010904/DTD/svg10.dtd">
<svg version="1.0" xmlns="http://www.w3.org/2000/svg"
 width="512.000000pt" height="512.000000pt" viewBox="0 0 512.000000 512.000000"
 preserveAspectRatio="xMidYMid meet">

<g transform="translate(0.000000,512.000000) scale(0.100000,-0.100000)"
fill="#000000" stroke="none">
<path d="M4425 3729 c-115 -63 -152 -75 -202 -62 l-38 10 19 -106 c16 -86 20
-154 20 -361 1 -276 -13 -394 -70 -596 -13 -49 -32 -145 -40 -214 -18 -146
-35 -189 -82 -205 -25 -8 -40 -24 -63 -64 -31 -58 -31 -58 3 -75 12 -6 27 -26
32 -44 8 -31 3 -46 -54 -158 -69 -138 -113 -194 -152 -194 -32 0 -76 34 -80
61 -2 16 -18 3 -82 -67 -44 -48 -70 -82 -59 -75 34 17 52 13 85 -19 38 -38 33
-68 -20 -124 -40 -41 -184 -156 -219 -175 -49 -25 -100 0 -111 56 l-7 32 -67
-46 c-64 -44 -67 -48 -51 -65 26 -29 21 -77 -11 -104 -30 -27 -226 -92 -301
-100 -34 -4 -56 -1 -68 8 -16 12 -37 7 -160 -34 -367 -122 -751 -149 -1155
-82 l-43 7 7 -41 c8 -50 -6 -92 -68 -207 -46 -84 -48 -90 -31 -103 41 -30 194
-109 300 -154 111 -47 329 -118 363 -118 13 0 23 23 45 98 36 126 60 168 111
198 l41 24 343 0 343 0 41 -24 c51 -30 76 -74 112 -199 21 -73 32 -97 45 -97
28 0 214 58 322 101 102 40 294 137 336 168 l22 17 -62 119 c-55 107 -61 123
-55 162 3 24 12 56 20 71 8 15 119 131 248 259 204 202 239 233 278 243 59 16
102 5 221 -60 108 -59 93 -65 167 69 85 156 212 491 212 560 0 14 -21 24 -97
46 -127 36 -169 60 -199 111 l-24 41 0 343 c0 336 0 343 22 382 29 50 77 78
201 113 76 22 97 32 97 46 0 34 -69 246 -119 365 -53 125 -151 306 -167 310
-5 1 -49 -20 -99 -47z"/>
<path d="M2863 3046 c-95 -31 -178 -110 -213 -202 -18 -49 -20 -78 -20 -284 0
-207 2 -235 21 -284 27 -73 96 -148 167 -183 49 -24 69 -28 142 -28 71 0 94 4
140 26 77 36 121 77 161 151 l34 63 0 255 0 255 -34 63 c-40 74 -85 116 -160
150 -66 31 -175 39 -238 18z m164 -195 c30 -14 48 -31 62 -60 19 -36 21 -58
21 -231 0 -173 -2 -195 -21 -231 -15 -30 -32 -46 -66 -61 -74 -32 -143 -12
-183 55 -18 29 -20 51 -20 238 0 198 1 207 23 240 25 38 78 69 117 69 14 0 44
-9 67 -19z"/>
<path d="M2135 3011 c-16 -10 -81 -70 -142 -134 -102 -104 -113 -119 -113
-152 0 -49 15 -74 57 -91 43 -19 68 -11 116 34 l37 36 0 -212 0 -212 -76 0
c-70 0 -78 -2 -105 -29 -21 -22 -29 -39 -29 -66 0 -27 8 -44 29 -66 l29 -29
240 0 240 0 31 26 c26 21 31 33 31 68 0 65 -32 90 -123 96 l-72 5 -3 347 -2
346 -31 26 c-36 31 -73 33 -114 7z"/>
</g>
</svg>
